<svg width="14" height="18" viewBox="0 0 14 18" fill="none" xmlns="http://www.w3.org/2000/svg">
<path d="M6.8 8.83643C7.2675 8.83643 7.66785 8.66983 8.00105 8.33663C8.33425 8.00343 8.50057 7.60336 8.5 7.13643C8.5 6.66893 8.3334 6.26858 8.0002 5.93538C7.667 5.60218 7.26693 5.43586 6.8 5.43643C6.3325 5.43643 5.93215 5.60303 5.59895 5.93623C5.26575 6.26943 5.09943 6.66949 5.1 7.13643C5.1 7.60393 5.2666 8.00428 5.5998 8.33748C5.933 8.67068 6.33307 8.83699 6.8 8.83643ZM6.8 15.0839C8.52833 13.4973 9.81042 12.0557 10.6462 10.7591C11.4821 9.46259 11.9 8.31169 11.9 7.30643C11.9 5.76226 11.4076 4.49803 10.4227 3.51373C9.43783 2.52943 8.23027 2.03699 6.8 2.03643C5.36917 2.03643 4.16132 2.52886 3.17645 3.51373C2.19158 4.49859 1.69943 5.76283 1.7 7.30643C1.7 8.31226 2.11792 9.46344 2.95375 10.76C3.78958 12.0565 5.07167 13.4978 6.8 15.0839ZM6.8 17.3364C4.51917 15.3956 2.81577 13.593 1.6898 11.9287C0.563833 10.2644 0.000566667 8.72366 0 7.30643C0 5.18143 0.683683 3.48851 2.05105 2.22768C3.41842 0.966842 5.0014 0.336426 6.8 0.336426C8.59917 0.336426 10.1824 0.966842 11.5498 2.22768C12.9172 3.48851 13.6006 5.18143 13.6 7.30643C13.6 8.72309 13.0367 10.2639 11.9102 11.9287C10.7837 13.5936 9.08027 15.3962 6.8 17.3364Z" fill="black"/>
</svg>
